<svg width="1270" height="679" xmlns="http://www.w3.org/2000/svg"><g><path d="M-133.98268134333193,-15.54350788705051L-124.31614553555846,274.0997843630612L-86.39351380057633,92.12025521323085Z" fill="#fcfffa" stroke="#fcfffa"></path><path d="M-133.98268134333193,-15.54350788705051L-86.39351380057633,92.12025521323085L38.0005278903991,-64.92223022505641Z" fill="#fffffc" stroke="#fffffc"></path><path d="M38.0005278903991,-64.92223022505641L-86.39351380057633,92.12025521323085L55.45695371925831,76.60690700635314Z" fill="#fbfef8" stroke="#fbfef8"></path><path d="M38.0005278903991,-64.92223022505641L55.45695371925831,76.60690700635314L179.70172665081918,113.38340302929282Z" fill="#f4fbf1" stroke="#f4fbf1"></path><path d="M38.0005278903991,-64.92223022505641L179.70172665081918,113.38340302929282L275.531991943717,-91.23870723880827Z" fill="#eef9eb" stroke="#eef9eb"></path><path d="M275.531991943717,-91.23870723880827L179.70172665081918,113.38340302929282L343.7696162145585,28.07682833634317Z" fill="#e7f6e3" stroke="#e7f6e3"></path><path d="M275.531991943717,-91.23870723880827L343.7696162145585,28.07682833634317L419.1687018144876,-88.12269874848425Z" fill="#def2df" stroke="#def2df"></path><path d="M275.531991943717,-91.23870723880827L419.1687018144876,-88.12269874848425L514.3785565160215,-116.78976799361408Z" fill="#d6efdb" stroke="#d6efdb"></path><path d="M419.1687018144876,-88.12269874848425L343.7696162145585,28.07682833634317L482.7593678981066,22.692412734031677Z" fill="#d5efdb" stroke="#d5efdb"></path><path d="M419.1687018144876,-88.12269874848425L482.7593678981066,22.692412734031677L514.3785565160215,-116.78976799361408Z" fill="#ccebdd" stroke="#ccebdd"></path><path d="M514.3785565160215,-116.78976799361408L482.7593678981066,22.692412734031677L617.1544870175421,-22.298767743632197Z" fill="#c1e7e0" stroke="#c1e7e0"></path><path d="M514.3785565160215,-116.78976799361408L617.1544870175421,-22.298767743632197L805.1152211241424,-46.82121709920466Z" fill="#b0dfe6" stroke="#b0dfe6"></path><path d="M514.3785565160215,-116.78976799361408L805.1152211241424,-46.82121709920466L964.6162454411387,-75.62175516039133Z" fill="#a0d2e5" stroke="#a0d2e5"></path><path d="M514.3785565160215,-116.78976799361408L964.6162454411387,-75.62175516039133L1314.7556107118726,-104.7258167155087Z" fill="#8bbbd9" stroke="#8bbbd9"></path><path d="M617.1544870175421,-22.298767743632197L482.7593678981066,22.692412734031677L660.6322086509317,85.45300086960196Z" fill="#bae4e3" stroke="#bae4e3"></path><path d="M617.1544870175421,-22.298767743632197L660.6322086509317,85.45300086960196L805.1152211241424,-46.82121709920466Z" fill="#a9dae9" stroke="#a9dae9"></path><path d="M805.1152211241424,-46.82121709920466L660.6322086509317,85.45300086960196L780.9084947872907,85.2393962815404Z" fill="#a1d3e6" stroke="#a1d3e6"></path><path d="M805.1152211241424,-46.82121709920466L780.9084947872907,85.2393962815404L1001.3942509051412,90.62490060925484Z" fill="#93c4de" stroke="#93c4de"></path><path d="M805.1152211241424,-46.82121709920466L1001.3942509051412,90.62490060925484L964.6162454411387,-75.62175516039133Z" fill="#8cbcda" stroke="#8cbcda"></path><path d="M964.6162454411387,-75.62175516039133L1001.3942509051412,90.62490060925484L1162.8211126383394,-45.64371982589364Z" fill="#84accd" stroke="#84accd"></path><path d="M964.6162454411387,-75.62175516039133L1162.8211126383394,-45.64371982589364L1314.7556107118726,-104.7258167155087Z" fill="#849dbd" stroke="#849dbd"></path><path d="M1162.8211126383394,-45.64371982589364L1001.3942509051412,90.62490060925484L1173.5609265044332,25.1141544431448Z" fill="#84a2c3" stroke="#84a2c3"></path><path d="M1162.8211126383394,-45.64371982589364L1173.5609265044332,25.1141544431448L1314.7556107118726,-104.7258167155087Z" fill="#8493b3" stroke="#8493b3"></path><path d="M1314.7556107118726,-104.7258167155087L1173.5609265044332,25.1141544431448L1238.5674869176,73.37890159338713Z" fill="#8490af" stroke="#8490af"></path><path d="M1314.7556107118726,-104.7258167155087L1238.5674869176,73.37890159338713L1368.1858131475747,-21.597176659852266Z" fill="#8486a5" stroke="#8486a5"></path><path d="M1368.1858131475747,-21.597176659852266L1238.5674869176,73.37890159338713L1427.0188138447702,122.94316543266177Z" fill="#84819f" stroke="#84819f"></path><path d="M-86.39351380057633,92.12025521323085L-124.31614553555846,274.0997843630612L37.37158063799143,242.3413447290659Z" fill="#eaffec" stroke="#eaffec"></path><path d="M-86.39351380057633,92.12025521323085L37.37158063799143,242.3413447290659L55.45695371925831,76.60690700635314Z" fill="#f6fef0" stroke="#f6fef0"></path><path d="M55.45695371925831,76.60690700635314L37.37158063799143,242.3413447290659L166.6627086047083,207.21210376359522Z" fill="#e7fbe4" stroke="#e7fbe4"></path><path d="M55.45695371925831,76.60690700635314L166.6627086047083,207.21210376359522L179.70172665081918,113.38340302929282Z" fill="#ecf9e6" stroke="#ecf9e6"></path><path d="M179.70172665081918,113.38340302929282L166.6627086047083,207.21210376359522L402.6161497179419,263.3302430436015Z" fill="#d6f6d5" stroke="#d6f6d5"></path><path d="M179.70172665081918,113.38340302929282L402.6161497179419,263.3302430436015L343.7696162145585,28.07682833634317Z" fill="#def4d9" stroke="#def4d9"></path><path d="M343.7696162145585,28.07682833634317L402.6161497179419,263.3302430436015L503.7941225152463,211.87493196688592Z" fill="#caefcf" stroke="#caefcf"></path><path d="M343.7696162145585,28.07682833634317L503.7941225152463,211.87493196688592L482.7593678981066,22.692412734031677Z" fill="#d0edda" stroke="#d0edda"></path><path d="M482.7593678981066,22.692412734031677L503.7941225152463,211.87493196688592L660.6322086509317,85.45300086960196Z" fill="#bde7dd" stroke="#bde7dd"></path><path d="M660.6322086509317,85.45300086960196L503.7941225152463,211.87493196688592L699.2337192222476,232.65232217498124Z" fill="#a7e1d8" stroke="#a7e1d8"></path><path d="M660.6322086509317,85.45300086960196L699.2337192222476,232.65232217498124L780.9084947872907,85.2393962815404Z" fill="#a1d8e1" stroke="#a1d8e1"></path><path d="M780.9084947872907,85.2393962815404L699.2337192222476,232.65232217498124L873.0719150416553,239.37492795288563Z" fill="#8dced5" stroke="#8dced5"></path><path d="M780.9084947872907,85.2393962815404L873.0719150416553,239.37492795288563L1001.3942509051412,90.62490060925484Z" fill="#8bc1d4" stroke="#8bc1d4"></path><path d="M1001.3942509051412,90.62490060925484L873.0719150416553,239.37492795288563L977.2022999357432,263.28937478363514Z" fill="#75b8c8" stroke="#75b8c8"></path><path d="M1001.3942509051412,90.62490060925484L977.2022999357432,263.28937478363514L1080.6130926590413,222.6668820809573Z" fill="#72afc2" stroke="#72afc2"></path><path d="M1001.3942509051412,90.62490060925484L1080.6130926590413,222.6668820809573L1173.5609265044332,25.1141544431448Z" fill="#81a6c2" stroke="#81a6c2"></path><path d="M1173.5609265044332,25.1141544431448L1080.6130926590413,222.6668820809573L1219.3033757340163,209.4054484181106Z" fill="#7d9cb2" stroke="#7d9cb2"></path><path d="M1173.5609265044332,25.1141544431448L1219.3033757340163,209.4054484181106L1238.5674869176,73.37890159338713Z" fill="#8294b0" stroke="#8294b0"></path><path d="M1238.5674869176,73.37890159338713L1219.3033757340163,209.4054484181106L1427.0188138447702,122.94316543266177Z" fill="#7f889f" stroke="#7f889f"></path><path d="M1427.0188138447702,122.94316543266177L1219.3033757340163,209.4054484181106L1457.070522699505,275.8943397179246Z" fill="#6f808b" stroke="#6f808b"></path><path d="M-124.31614553555846,274.0997843630612L-67.99649812281132,709.5068576931953L-67.49661387875676,568.6748486571014Z" fill="#92c1e7" stroke="#92c1e7"></path><path d="M-124.31614553555846,274.0997843630612L-67.49661387875676,568.6748486571014L-60.25230539962649,363.5966088529676Z" fill="#a7e3f9" stroke="#a7e3f9"></path><path d="M-124.31614553555846,274.0997843630612L-60.25230539962649,363.5966088529676L37.37158063799143,242.3413447290659Z" fill="#ccfaf0" stroke="#ccfaf0"></path><path d="M37.37158063799143,242.3413447290659L-60.25230539962649,363.5966088529676L34.04730409383774,367.63684306293726Z" fill="#bdf3ef" stroke="#bdf3ef"></path><path d="M37.37158063799143,242.3413447290659L34.04730409383774,367.63684306293726L178.76602660864592,353.40398110449314Z" fill="#b7f1ea" stroke="#b7f1ea"></path><path d="M37.37158063799143,242.3413447290659L178.76602660864592,353.40398110449314L166.6627086047083,207.21210376359522Z" fill="#c7f6e0" stroke="#c7f6e0"></path><path d="M166.6627086047083,207.21210376359522L178.76602660864592,353.40398110449314L402.6161497179419,263.3302430436015Z" fill="#bcf2d7" stroke="#bcf2d7"></path><path d="M402.6161497179419,263.3302430436015L178.76602660864592,353.40398110449314L411.55781426467,351.8927861843258Z" fill="#a2e9d7" stroke="#a2e9d7"></path><path d="M402.6161497179419,263.3302430436015L411.55781426467,351.8927861843258L503.7941225152463,211.87493196688592Z" fill="#a4e9ce" stroke="#a4e9ce"></path><path d="M503.7941225152463,211.87493196688592L411.55781426467,351.8927861843258L581.0803842823952,329.8614501580596Z" fill="#93e4d3" stroke="#93e4d3"></path><path d="M503.7941225152463,211.87493196688592L581.0803842823952,329.8614501580596L699.2337192222476,232.65232217498124Z" fill="#92e1d4" stroke="#92e1d4"></path><path d="M699.2337192222476,232.65232217498124L581.0803842823952,329.8614501580596L639.4930206332356,384.8861402180046Z" fill="#76d6dd" stroke="#76d6dd"></path><path d="M699.2337192222476,232.65232217498124L639.4930206332356,384.8861402180046L876.2272225879133,319.6162025537342Z" fill="#69cdde" stroke="#69cdde"></path><path d="M699.2337192222476,232.65232217498124L876.2272225879133,319.6162025537342L873.0719150416553,239.37492795288563Z" fill="#71c7d2" stroke="#71c7d2"></path><path d="M873.0719150416553,239.37492795288563L876.2272225879133,319.6162025537342L935.8059740345925,315.88141947984695Z" fill="#5dbbd0" stroke="#5dbbd0"></path><path d="M873.0719150416553,239.37492795288563L935.8059740345925,315.88141947984695L977.2022999357432,263.28937478363514Z" fill="#5fb8cc" stroke="#5fb8cc"></path><path d="M977.2022999357432,263.28937478363514L935.8059740345925,315.88141947984695L1084.514630511403,366.34219153784215Z" fill="#49aacb" stroke="#49aacb"></path><path d="M977.2022999357432,263.28937478363514L1084.514630511403,366.34219153784215L1080.6130926590413,222.6668820809573Z" fill="#54a7c0" stroke="#54a7c0"></path><path d="M1080.6130926590413,222.6668820809573L1084.514630511403,366.34219153784215L1219.3033757340163,209.4054484181106Z" fill="#5a9db1" stroke="#5a9db1"></path><path d="M1219.3033757340163,209.4054484181106L1084.514630511403,366.34219153784215L1333.48164729774,398.4584975615144Z" fill="#4689ac" stroke="#4689ac"></path><path d="M1219.3033757340163,209.4054484181106L1333.48164729774,398.4584975615144L1457.070522699505,275.8943397179246Z" fill="#507d95" stroke="#507d95"></path><path d="M1457.070522699505,275.8943397179246L1333.48164729774,398.4584975615144L1459.5195418596268,324.7428078018129Z" fill="#43748d" stroke="#43748d"></path><path d="M-60.25230539962649,363.5966088529676L-67.49661387875676,568.6748486571014L34.60441675968468,504.4871999602765Z" fill="#95cbe8" stroke="#95cbe8"></path><path d="M-60.25230539962649,363.5966088529676L34.60441675968468,504.4871999602765L34.04730409383774,367.63684306293726Z" fill="#a1def1" stroke="#a1def1"></path><path d="M34.04730409383774,367.63684306293726L34.60441675968468,504.4871999602765L178.76602660864592,353.40398110449314Z" fill="#9bddeb" stroke="#9bddeb"></path><path d="M178.76602660864592,353.40398110449314L34.60441675968468,504.4871999602765L270.8329648151994,531.3325930014253Z" fill="#87cadc" stroke="#87cadc"></path><path d="M178.76602660864592,353.40398110449314L270.8329648151994,531.3325930014253L411.55781426467,351.8927861843258Z" fill="#8bd6da" stroke="#8bd6da"></path><path d="M411.55781426467,351.8927861843258L270.8329648151994,531.3325930014253L425.2541680634022,581.9700836855918Z" fill="#71bbca" stroke="#71bbca"></path><path d="M411.55781426467,351.8927861843258L425.2541680634022,581.9700836855918L561.322970688343,561.0655129048973Z" fill="#62b3c8" stroke="#62b3c8"></path><path d="M411.55781426467,351.8927861843258L561.322970688343,561.0655129048973L581.0803842823952,329.8614501580596Z" fill="#69c8d8" stroke="#69c8d8"></path><path d="M581.0803842823952,329.8614501580596L561.322970688343,561.0655129048973L639.4930206332356,384.8861402180046Z" fill="#5ac0da" stroke="#5ac0da"></path><path d="M639.4930206332356,384.8861402180046L561.322970688343,561.0655129048973L667.6081492379308,478.35898387245834Z" fill="#4baed4" stroke="#4baed4"></path><path d="M639.4930206332356,384.8861402180046L667.6081492379308,478.35898387245834L782.0694025699049,492.2405128274113Z" fill="#42afdb" stroke="#42afdb"></path><path d="M639.4930206332356,384.8861402180046L782.0694025699049,492.2405128274113L876.2272225879133,319.6162025537342Z" fill="#48b5e0" stroke="#48b5e0"></path><path d="M876.2272225879133,319.6162025537342L782.0694025699049,492.2405128274113L1013.7950149085373,465.51028652116656Z" fill="#319cd2" stroke="#319cd2"></path><path d="M876.2272225879133,319.6162025537342L1013.7950149085373,465.51028652116656L935.8059740345925,315.88141947984695Z" fill="#3ca7d6" stroke="#3ca7d6"></path><path d="M935.8059740345925,315.88141947984695L1013.7950149085373,465.51028652116656L1084.514630511403,366.34219153784215Z" fill="#319ad0" stroke="#319ad0"></path><path d="M1084.514630511403,366.34219153784215L1013.7950149085373,465.51028652116656L1154.1112733446062,494.1345882229507Z" fill="#217ebb" stroke="#217ebb"></path><path d="M1084.514630511403,366.34219153784215L1154.1112733446062,494.1345882229507L1333.48164729774,398.4584975615144Z" fill="#2775ae" stroke="#2775ae"></path><path d="M1333.48164729774,398.4584975615144L1154.1112733446062,494.1345882229507L1283.80519637838,483.33300422877073Z" fill="#1d609e" stroke="#1d609e"></path><path d="M1333.48164729774,398.4584975615144L1283.80519637838,483.33300422877073L1454.3142739031464,493.0372183676809Z" fill="#1d528e" stroke="#1d528e"></path><path d="M1333.48164729774,398.4584975615144L1454.3142739031464,493.0372183676809L1459.5195418596268,324.7428078018129Z" fill="#2b628f" stroke="#2b628f"></path><path d="M1459.5195418596268,324.7428078018129L1454.3142739031464,493.0372183676809L1480.4013664182276,859.972754381597Z" fill="#16346a" stroke="#16346a"></path><path d="M-67.49661387875676,568.6748486571014L-67.99649812281132,709.5068576931953L25.941878696903586,638.0531602073461Z" fill="#909abc" stroke="#909abc"></path><path d="M-67.49661387875676,568.6748486571014L25.941878696903586,638.0531602073461L34.60441675968468,504.4871999602765Z" fill="#8dafd0" stroke="#8dafd0"></path><path d="M34.60441675968468,504.4871999602765L25.941878696903586,638.0531602073461L215.1283542998135,631.2428831867874Z" fill="#86a5c2" stroke="#86a5c2"></path><path d="M34.60441675968468,504.4871999602765L215.1283542998135,631.2428831867874L270.8329648151994,531.3325930014253Z" fill="#7faec8" stroke="#7faec8"></path><path d="M270.8329648151994,531.3325930014253L215.1283542998135,631.2428831867874L349.0868227276951,656.2507140263915Z" fill="#789baf" stroke="#789baf"></path><path d="M270.8329648151994,531.3325930014253L349.0868227276951,656.2507140263915L425.2541680634022,581.9700836855918Z" fill="#6f9db0" stroke="#6f9db0"></path><path d="M425.2541680634022,581.9700836855918L349.0868227276951,656.2507140263915L515.7545125018805,679.2463025730103Z" fill="#65899c" stroke="#65899c"></path><path d="M425.2541680634022,581.9700836855918L515.7545125018805,679.2463025730103L561.322970688343,561.0655129048973Z" fill="#598faa" stroke="#598faa"></path><path d="M561.322970688343,561.0655129048973L515.7545125018805,679.2463025730103L640.2538140770048,664.0833501890302Z" fill="#4e82a5" stroke="#4e82a5"></path><path d="M561.322970688343,561.0655129048973L640.2538140770048,664.0833501890302L667.6081492379308,478.35898387245834Z" fill="#4693be" stroke="#4693be"></path><path d="M667.6081492379308,478.35898387245834L640.2538140770048,664.0833501890302L790.3050273656845,636.7044424731284Z" fill="#3a84ba" stroke="#3a84ba"></path><path d="M667.6081492379308,478.35898387245834L790.3050273656845,636.7044424731284L782.0694025699049,492.2405128274113Z" fill="#3490cb" stroke="#3490cb"></path><path d="M782.0694025699049,492.2405128274113L790.3050273656845,636.7044424731284L1029.950875947252,621.5085038077086Z" fill="#2570b2" stroke="#2570b2"></path><path d="M782.0694025699049,492.2405128274113L1029.950875947252,621.5085038077086L1013.7950149085373,465.51028652116656Z" fill="#1b79c0" stroke="#1b79c0"></path><path d="M1013.7950149085373,465.51028652116656L1029.950875947252,621.5085038077086L1154.1112733446062,494.1345882229507Z" fill="#1668b1" stroke="#1668b1"></path><path d="M1154.1112733446062,494.1345882229507L1029.950875947252,621.5085038077086L1089.8492243885994,693.5764371044934Z" fill="#164c93" stroke="#164c93"></path><path d="M1154.1112733446062,494.1345882229507L1089.8492243885994,693.5764371044934L1242.0852221176028,680.4004146158695Z" fill="#163c82" stroke="#163c82"></path><path d="M1154.1112733446062,494.1345882229507L1242.0852221176028,680.4004146158695L1283.80519637838,483.33300422877073Z" fill="#164890" stroke="#164890"></path><path d="M1283.80519637838,483.33300422877073L1242.0852221176028,680.4004146158695L1454.3142739031464,493.0372183676809Z" fill="#163b81" stroke="#163b81"></path><path d="M1454.3142739031464,493.0372183676809L1242.0852221176028,680.4004146158695L1462.737041367218,726.9271693378687Z" fill="#161d5d" stroke="#161d5d"></path><path d="M1454.3142739031464,493.0372183676809L1462.737041367218,726.9271693378687L1480.4013664182276,859.972754381597Z" fill="#160a3c" stroke="#160a3c"></path><path d="M-67.99649812281132,709.5068576931953L-27.87349392659962,866.9467455055565L20.486183166503906,836.1785495840013Z" fill="#8f7f83" stroke="#8f7f83"></path><path d="M-67.99649812281132,709.5068576931953L20.486183166503906,836.1785495840013L25.941878696903586,638.0531602073461Z" fill="#8e7e9c" stroke="#8e7e9c"></path><path d="M25.941878696903586,638.0531602073461L20.486183166503906,836.1785495840013L219.42622943781316,842.6093726232648Z" fill="#867b86" stroke="#867b86"></path><path d="M25.941878696903586,638.0531602073461L219.42622943781316,842.6093726232648L215.1283542998135,631.2428831867874Z" fill="#817f98" stroke="#817f98"></path><path d="M215.1283542998135,631.2428831867874L219.42622943781316,842.6093726232648L349.0868227276951,656.2507140263915Z" fill="#797a8d" stroke="#797a8d"></path><path d="M349.0868227276951,656.2507140263915L219.42622943781316,842.6093726232648L324.05303735286,847.2549331840128Z" fill="#767572" stroke="#767572"></path><path d="M349.0868227276951,656.2507140263915L324.05303735286,847.2549331840128L506.53618348762393,768.7676177546382Z" fill="#6a7075" stroke="#6a7075"></path><path d="M349.0868227276951,656.2507140263915L506.53618348762393,768.7676177546382L515.7545125018805,679.2463025730103Z" fill="#607489" stroke="#607489"></path><path d="M515.7545125018805,679.2463025730103L506.53618348762393,768.7676177546382L640.2538140770048,664.0833501890302Z" fill="#516d8d" stroke="#516d8d"></path><path d="M640.2538140770048,664.0833501890302L506.53618348762393,768.7676177546382L691.4624424185604,781.2221579812467Z" fill="#486284" stroke="#486284"></path><path d="M640.2538140770048,664.0833501890302L691.4624424185604,781.2221579812467L790.3050273656845,636.7044424731284Z" fill="#396398" stroke="#396398"></path><path d="M790.3050273656845,636.7044424731284L691.4624424185604,781.2221579812467L798.3818494062871,884.5836090389639Z" fill="#32527b" stroke="#32527b"></path><path d="M790.3050273656845,636.7044424731284L798.3818494062871,884.5836090389639L975.6860867980868,771.9579794257879Z" fill="#264575" stroke="#264575"></path><path d="M790.3050273656845,636.7044424731284L975.6860867980868,771.9579794257879L1029.950875947252,621.5085038077086Z" fill="#1d4a8e" stroke="#1d4a8e"></path><path d="M1029.950875947252,621.5085038077086L975.6860867980868,771.9579794257879L1089.8492243885994,693.5764371044934Z" fill="#16377e" stroke="#16377e"></path><path d="M1089.8492243885994,693.5764371044934L975.6860867980868,771.9579794257879L1112.1391555666924,771.8907937780023Z" fill="#162a68" stroke="#162a68"></path><path d="M1089.8492243885994,693.5764371044934L1112.1391555666924,771.8907937780023L1242.0852221176028,680.4004146158695Z" fill="#162065" stroke="#162065"></path><path d="M1242.0852221176028,680.4004146158695L1112.1391555666924,771.8907937780023L1253.8432203792036,849.7685288731009Z" fill="#16164b" stroke="#16164b"></path><path d="M1242.0852221176028,680.4004146158695L1253.8432203792036,849.7685288731009L1462.737041367218,726.9271693378687Z" fill="#16053e" stroke="#16053e"></path><path d="M1462.737041367218,726.9271693378687L1253.8432203792036,849.7685288731009L1480.4013664182276,859.972754381597Z" fill="#16001e" stroke="#16001e"></path><path d="M-27.87349392659962,866.9467455055565L798.3818494062871,884.5836090389639L324.05303735286,847.2549331840128Z" fill="#6d725e" stroke="#6d725e"></path><path d="M-27.87349392659962,866.9467455055565L324.05303735286,847.2549331840128L219.42622943781316,842.6093726232648Z" fill="#80796b" stroke="#80796b"></path><path d="M-27.87349392659962,866.9467455055565L219.42622943781316,842.6093726232648L20.486183166503906,836.1785495840013Z" fill="#877c73" stroke="#877c73"></path><path d="M324.05303735286,847.2549331840128L798.3818494062871,884.5836090389639L506.53618348762393,768.7676177546382Z" fill="#536861" stroke="#536861"></path><path d="M506.53618348762393,768.7676177546382L798.3818494062871,884.5836090389639L691.4624424185604,781.2221579812467Z" fill="#3f5d6e" stroke="#3f5d6e"></path><path d="M798.3818494062871,884.5836090389639L1480.4013664182276,859.972754381597L1253.8432203792036,849.7685288731009Z" fill="#161939" stroke="#161939"></path><path d="M798.3818494062871,884.5836090389639L1253.8432203792036,849.7685288731009L975.6860867980868,771.9579794257879Z" fill="#163153" stroke="#163153"></path><path d="M975.6860867980868,771.9579794257879L1253.8432203792036,849.7685288731009L1112.1391555666924,771.8907937780023Z" fill="#16224f" stroke="#16224f"></path></g></svg>